<?xml version="1.0" standalone="no"?><!DOCTYPE svg PUBLIC "-//W3C//DTD SVG 1.1//EN" "http://www.w3.org/Graphics/SVG/1.1/DTD/svg11.dtd"><svg t="1717613737633" class="icon" viewBox="0 0 1024 1024" version="1.1" xmlns="http://www.w3.org/2000/svg" p-id="23089" xmlns:xlink="http://www.w3.org/1999/xlink" width="200" height="200"><path d="M910.222222 56.888889a113.777778 113.777778 0 0 1 113.777778 113.777778v682.666666a113.777778 113.777778 0 0 1-113.777778 113.777778H113.777778a113.777778 113.777778 0 0 1-113.777778-113.777778V170.666667a113.777778 113.777778 0 0 1 113.777778-113.777778h796.444444zM563.484444 360.163556a42.666667 42.666667 0 0 0-51.712 21.845333l-2.161777 5.347555-81.180445 246.784a42.666667 42.666667 0 0 0 78.904889 32.028445l2.161778-5.347556 81.180444-246.784a42.666667 42.666667 0 0 0-27.192889-53.873777zM343.04 361.244444a42.666667 42.666667 0 0 0-55.523556-4.152888l-4.778666 4.152888L162.019556 481.848889l-3.811556 4.380444a42.666667 42.666667 0 0 0-0.341333 51.143111l4.152889 4.835556 120.718222 120.661333 4.323555 3.811556a42.666667 42.666667 0 0 0 51.2 0.341333l4.778667-4.152889 3.811556-4.380444a42.666667 42.666667 0 0 0 0.341333-51.143111l-4.152889-4.835556-90.453333-90.453333L343.04 421.546667l3.811556-4.323556a42.666667 42.666667 0 0 0-3.811556-55.978667z m393.443556-4.152888a42.666667 42.666667 0 0 0-62.748445 54.897777l3.413333 5.233778 3.811556 4.323556 90.453333 90.510222-90.453333 90.510222-4.152889 4.835556a42.666667 42.666667 0 0 0-3.072 45.909333l3.413333 5.233778 3.811556 4.380444 4.835556 4.152889a42.666667 42.666667 0 0 0 45.909333 3.072l5.233778-3.413333 4.323555-3.811556 120.718222-120.661333 4.152889-4.835556a42.666667 42.666667 0 0 0 3.072-45.909333l-3.413333-5.233778-3.811556-4.380444L741.262222 361.244444l-4.778666-4.152888z" fill="#13227a" p-id="23090"></path></svg>