<?xml version="1.0" standalone="no"?><!DOCTYPE svg PUBLIC "-//W3C//DTD SVG 1.1//EN" "http://www.w3.org/Graphics/SVG/1.1/DTD/svg11.dtd"><svg t="1717525477122" class="icon" viewBox="0 0 1024 1024" version="1.1" xmlns="http://www.w3.org/2000/svg" p-id="15517" xmlns:xlink="http://www.w3.org/1999/xlink" width="200" height="200"><path d="M972.8 256v530.6368C818.688 876.544 665.088 921.6 512 921.6s-306.688-45.0048-460.8-134.9632V256c154.2656 84.7872 307.8656 127.1808 460.8 127.1808 152.9856 0 306.5856-42.3936 460.8-127.1808zM358.4 475.8016L219.8016 614.4l18.0736 18.1248L358.4 752.9984 394.5984 716.8l-102.4-102.4 84.3264-84.2752 18.0736-18.1248L358.4 475.8016z m307.2 0l-36.1984 36.1984 18.0736 18.1248L731.8016 614.4l-102.4 102.4 36.1984 36.1984 18.1248-18.0736 102.4-102.4 18.0736-18.1248L665.6 475.8016z m-125.2864 24.7296l-102.4 204.8 45.7728 22.9376 102.4-204.8-45.7728-22.9376zM563.2 102.4c137.6256 21.5552 237.9776 47.104 301.1584 76.544 18.7904 8.7552 35.1744 17.3056 49.152 25.6512C796.416 264.2944 679.68 297.8816 563.2 305.5104V102.4zM460.8 102.4v203.1104c-116.4288-7.6288-233.1648-41.216-350.208-100.864 13.8752-8.3968 30.2592-16.896 49.0496-25.7024C222.8224 149.504 323.1744 123.9552 460.8 102.4z" fill="#C31418" p-id="15518"></path></svg>