<?xml version="1.0" standalone="no"?>
<!DOCTYPE svg PUBLIC "-//W3C//DTD SVG 20010904//EN"
 "http://www.w3.org/TR/2001/REC-SVG-20010904/DTD/svg10.dtd">
<svg version="1.0" xmlns="http://www.w3.org/2000/svg"
 width="1080.000000pt" height="1080.000000pt" viewBox="0 0 1080.000000 1080.000000"
 preserveAspectRatio="xMidYMid meet">

<g transform="translate(0.000000,1080.000000) scale(0.100000,-0.100000)"
fill="#000000" stroke="none">
<path d="M5610 10285 c-25 -8 -63 -24 -85 -34 -22 -11 -76 -34 -120 -51 -44
-17 -87 -37 -95 -45 -8 -7 -71 -42 -140 -77 -143 -74 -219 -121 -308 -190 -35
-28 -79 -56 -97 -64 -33 -13 -63 -37 -203 -156 -125 -107 -282 -270 -400 -418
-42 -52 -142 -260 -142 -296 0 -42 32 -70 77 -65 20 2 51 41 89 111 20 36 54
89 76 118 22 29 46 68 53 86 19 44 324 349 400 401 33 22 94 67 135 100 101
80 131 101 160 110 14 4 50 25 81 46 31 21 78 50 105 65 27 15 72 42 100 60
28 19 56 34 61 34 13 0 148 55 185 76 15 8 50 21 76 29 72 22 132 68 132 103
0 61 -55 84 -140 57z"/>
<path d="M6560 10193 c-81 -13 -266 -59 -330 -83 -41 -15 -104 -37 -140 -48
-139 -44 -268 -101 -391 -173 -36 -21 -93 -48 -125 -60 -32 -12 -68 -29 -79
-39 -11 -9 -56 -38 -101 -63 -45 -26 -89 -56 -99 -67 -11 -12 -46 -34 -79 -50
-34 -16 -101 -61 -149 -100 -49 -39 -101 -78 -115 -87 -35 -22 -96 -73 -147
-121 -22 -22 -84 -78 -137 -127 -104 -93 -116 -115 -82 -163 24 -34 73 -29
129 13 47 37 127 108 180 161 16 17 46 41 65 54 19 13 60 47 91 74 30 28 92
73 137 99 45 26 94 60 109 76 32 31 82 61 303 185 85 48 169 96 187 106 17 10
68 30 114 45 45 14 94 32 108 40 44 24 160 75 170 75 6 0 36 12 68 26 32 15
78 31 103 36 87 17 206 37 289 47 104 13 131 29 131 76 0 58 -27 75 -112 74
-40 -1 -84 -4 -98 -6z"/>
<path d="M3730 9695 c-52 -7 -130 -23 -172 -35 -43 -12 -99 -25 -125 -29 -96
-17 -243 -62 -330 -102 -89 -41 -161 -73 -333 -150 -52 -23 -106 -50 -120 -59
-14 -9 -52 -34 -85 -55 -103 -66 -126 -107 -84 -151 26 -28 20 -38 -44 -70
-86 -43 -230 -131 -257 -156 -14 -13 -41 -34 -60 -48 -54 -37 -140 -118 -170
-158 -15 -20 -38 -43 -51 -50 -13 -7 -46 -45 -74 -83 -27 -38 -64 -89 -81
-112 -17 -23 -48 -71 -69 -107 -22 -36 -49 -78 -61 -95 -11 -16 -36 -59 -53
-95 -18 -36 -44 -85 -58 -110 -30 -52 -133 -299 -133 -318 0 -7 -11 -34 -24
-60 -13 -26 -31 -70 -39 -98 -8 -28 -22 -65 -31 -82 -24 -47 -65 -193 -96
-342 -15 -75 -34 -156 -43 -180 -8 -25 -23 -87 -33 -138 l-19 -94 28 -24 c33
-29 54 -30 84 -5 20 17 57 134 105 336 5 22 16 60 24 85 9 25 29 95 45 155 35
133 115 371 135 402 8 13 26 56 40 95 47 131 192 407 284 538 143 206 229 307
292 342 21 12 38 27 38 33 0 30 124 119 264 190 121 61 139 74 156 115 9 23 9
34 -5 60 -21 40 -15 54 32 80 21 11 65 37 98 58 33 21 76 44 95 51 19 8 76 36
125 62 50 26 108 52 130 59 22 7 65 22 95 35 47 19 151 53 400 130 136 43 382
67 584 58 162 -7 186 -1 186 48 0 49 -15 66 -70 78 -69 15 -403 12 -520 -4z"/>
<path d="M6826 9675 c-28 -28 -29 -55 -5 -81 25 -26 44 -33 194 -64 353 -75
590 -147 765 -235 128 -63 256 -141 279 -169 8 -9 18 -16 23 -16 13 0 98 -62
158 -115 25 -22 66 -56 90 -77 25 -20 65 -53 90 -73 39 -32 49 -36 84 -32 51
7 71 27 62 64 -14 55 -194 215 -405 360 -46 32 -98 70 -115 84 -17 15 -42 30
-56 34 -14 4 -41 18 -60 31 -19 13 -66 35 -103 49 -37 14 -98 40 -135 59 -93
46 -265 99 -407 126 -66 12 -168 33 -227 46 -124 28 -209 31 -232 9z"/>
<path d="M6590 9455 c-179 -34 -280 -57 -325 -74 -27 -11 -70 -25 -95 -32 -25
-7 -83 -32 -130 -55 -47 -23 -112 -53 -145 -66 -33 -14 -80 -37 -105 -51 -25
-15 -98 -57 -163 -94 -108 -61 -118 -70 -129 -105 -28 -94 35 -126 136 -69 30
17 59 38 66 46 7 8 18 15 25 15 7 0 18 6 24 14 10 12 232 126 246 126 3 0 29
12 58 26 136 67 344 135 532 174 137 28 165 43 165 89 0 32 -8 44 -37 60 -26
13 -37 13 -123 -4z"/>
<path d="M6640 8959 c-206 -30 -229 -38 -244 -87 -10 -31 33 -72 76 -72 36 0
256 26 299 35 32 7 54 45 45 79 -11 45 -70 60 -176 45z"/>
<path d="M7990 8783 c-24 -9 -50 -46 -50 -71 0 -35 43 -69 98 -76 128 -17 300
-83 439 -169 46 -29 99 -61 117 -72 19 -10 41 -31 50 -45 8 -14 50 -61 93
-105 43 -45 96 -109 118 -143 22 -34 68 -106 103 -159 35 -53 79 -128 99 -167
19 -39 45 -84 58 -101 12 -16 26 -41 30 -55 4 -14 24 -59 44 -100 20 -41 45
-97 55 -125 11 -27 36 -86 56 -130 51 -110 84 -215 120 -380 35 -157 51 -185
107 -185 48 0 73 29 73 87 0 55 -30 153 -170 548 -44 124 -124 302 -149 330
-10 11 -24 36 -32 55 -30 75 -149 291 -178 325 -10 11 -30 40 -45 65 -14 25
-41 64 -59 87 -17 22 -52 67 -76 100 -54 70 -106 123 -169 171 -26 20 -63 52
-82 73 -31 33 -142 99 -167 99 -6 0 -48 18 -94 39 -130 61 -350 120 -389 104z"/>
<path d="M3579 8726 c-13 -6 -39 -21 -57 -34 -17 -13 -60 -36 -94 -52 -35 -15
-74 -40 -88 -55 -14 -15 -59 -52 -100 -82 -41 -31 -89 -70 -106 -87 -17 -17
-50 -47 -74 -66 -24 -19 -71 -64 -104 -99 -34 -36 -70 -74 -81 -86 -11 -11
-29 -27 -40 -35 -11 -8 -55 -55 -98 -105 -43 -49 -98 -112 -123 -140 -25 -27
-72 -87 -104 -132 -33 -45 -65 -85 -73 -90 -7 -4 -37 -51 -67 -103 -30 -52
-60 -101 -66 -108 -7 -7 -40 -64 -74 -127 -103 -193 -103 -300 0 -285 26 3 52
33 77 90 14 30 42 91 63 135 21 44 45 96 53 115 8 19 23 44 33 55 37 39 82
101 102 140 11 22 40 61 64 86 24 25 60 70 81 100 47 68 279 316 388 415 19
17 48 46 64 64 17 18 46 44 65 58 19 15 65 51 101 82 37 30 92 71 124 90 31
19 96 64 144 100 67 51 87 72 89 94 6 51 -47 84 -99 62z"/>
<path d="M6508 8503 c-20 -22 -23 -64 -8 -93 6 -11 26 -22 48 -26 49 -9 220
-67 302 -104 36 -15 99 -43 140 -60 41 -18 82 -38 90 -45 8 -7 37 -22 63 -34
27 -11 70 -36 95 -54 26 -19 55 -37 64 -40 27 -10 158 -98 158 -106 0 -5 37
-30 83 -56 49 -29 112 -79 157 -123 41 -42 87 -83 103 -92 15 -9 52 -45 83
-79 47 -51 61 -61 88 -61 48 0 71 32 67 91 -2 24 -231 254 -277 277 -22 11
-56 38 -75 59 -41 44 -78 72 -135 101 -22 11 -59 36 -81 54 -36 29 -64 47
-172 108 -14 8 -46 27 -71 41 -161 95 -278 146 -487 213 -148 47 -212 55 -235
29z"/>
<path d="M2853 7571 c-122 -109 -193 -181 -258 -261 -33 -41 -78 -92 -101
-114 -22 -23 -54 -61 -70 -86 -16 -25 -34 -49 -40 -55 -5 -5 -22 -28 -37 -50
-14 -22 -56 -76 -93 -120 -36 -44 -75 -98 -85 -121 -10 -22 -32 -57 -48 -78
-17 -21 -51 -75 -77 -122 -26 -46 -51 -84 -55 -84 -11 0 -29 -68 -29 -107 0
-39 30 -73 63 -73 37 0 74 42 122 140 58 117 118 214 164 265 20 22 45 56 56
75 24 44 90 133 134 182 19 21 41 48 50 60 63 92 328 382 397 435 83 64 102
132 48 167 -40 27 -61 19 -141 -53z"/>
<path d="M7392 7620 c-12 -12 -22 -33 -22 -47 0 -25 38 -93 52 -93 9 0 185
-147 248 -207 30 -29 70 -64 90 -78 19 -13 78 -68 131 -122 53 -54 112 -112
130 -129 58 -54 135 -137 165 -179 16 -22 47 -59 69 -83 22 -24 46 -54 53 -68
14 -27 60 -54 93 -54 42 0 61 56 39 115 -12 31 -63 96 -135 173 -27 30 -54 60
-58 68 -4 8 -51 58 -103 111 -53 54 -99 103 -102 108 -4 6 -38 37 -77 70 -38
33 -87 79 -110 103 -22 24 -69 67 -105 95 -36 29 -101 83 -145 121 -137 118
-172 134 -213 96z"/>
<path d="M6199 7569 c-114 -10 -233 -34 -343 -70 -129 -42 -149 -68 -105 -130
22 -31 48 -36 96 -18 15 6 78 24 138 40 97 27 131 31 290 36 163 5 188 3 268
-16 103 -26 123 -25 150 11 20 26 20 27 0 60 -14 25 -33 38 -79 55 -89 32
-264 46 -415 32z"/>
<path d="M4690 7426 c-19 -7 -76 -34 -127 -60 -110 -55 -248 -93 -374 -102
-70 -5 -97 -12 -111 -26 -23 -23 -23 -60 1 -89 18 -22 26 -24 118 -23 81 1
122 8 233 39 186 52 338 120 363 162 24 42 16 86 -19 102 -30 13 -39 13 -84
-3z"/>
<path d="M9017 7384 c-17 -34 -16 -44 3 -207 21 -167 57 -389 85 -512 42 -186
61 -542 36 -703 -6 -40 -27 -119 -47 -175 -19 -56 -47 -138 -61 -182 -14 -44
-32 -89 -39 -100 -15 -21 -19 -92 -6 -111 8 -12 46 -34 59 -34 16 0 71 57 78
81 4 13 13 38 21 54 69 154 138 412 155 581 16 169 8 240 -96 859 -14 83 -35
216 -47 297 -23 164 -35 188 -92 188 -27 0 -35 -5 -49 -36z"/>
<path d="M1630 7387 c-14 -7 -34 -30 -45 -52 -11 -22 -43 -80 -71 -130 -27
-49 -59 -110 -69 -135 -10 -25 -27 -65 -38 -89 -10 -24 -30 -78 -43 -120 -14
-41 -29 -80 -33 -86 -11 -13 -75 -204 -94 -280 -26 -100 -45 -250 -58 -445
-11 -161 -10 -206 4 -347 22 -218 46 -273 118 -273 30 0 42 6 55 25 18 27 17
39 -12 180 -30 145 -26 402 9 630 50 325 124 544 301 888 42 81 76 159 76 175
0 30 -35 72 -61 72 -8 0 -25 -6 -39 -13z"/>
<path d="M2604 6601 c-17 -10 -41 -35 -53 -54 -11 -19 -38 -49 -58 -66 -21
-18 -67 -74 -103 -125 -36 -52 -98 -137 -138 -191 -40 -53 -78 -109 -85 -123
-6 -15 -32 -58 -58 -97 -114 -174 -130 -221 -84 -251 20 -13 34 -15 68 -8 40
9 44 13 87 96 25 48 52 95 61 105 9 10 29 38 46 63 16 25 51 76 76 114 26 37
54 80 62 95 7 15 40 57 72 93 32 37 73 86 90 110 18 25 55 70 83 102 55 63 61
89 29 130 -24 31 -52 33 -95 7z"/>
<path d="M4005 6581 c-27 -5 -90 -23 -140 -41 -49 -17 -120 -42 -156 -55 -37
-13 -89 -38 -116 -57 -175 -116 -227 -152 -307 -211 -194 -145 -466 -419 -558
-562 -42 -66 -77 -153 -78 -191 0 -36 26 -64 60 -64 25 0 80 45 80 65 0 7 14
30 31 51 17 22 48 68 69 104 44 74 272 311 365 380 33 24 68 54 77 65 9 12 43
39 75 61 32 21 77 54 101 72 63 50 321 184 416 216 80 27 185 39 293 32 97 -6
102 -6 129 18 25 21 27 27 19 51 -20 56 -51 68 -187 71 -68 1 -145 -1 -173 -5z"/>
<path d="M6244 6541 c-11 -5 -27 -20 -36 -33 -14 -21 -14 -27 -1 -51 20 -38
49 -47 158 -47 117 0 218 -19 315 -60 41 -17 103 -42 138 -56 113 -44 173 -80
255 -154 21 -19 55 -45 74 -57 49 -29 291 -271 310 -308 8 -16 34 -50 58 -75
58 -62 153 -199 203 -293 23 -44 57 -98 76 -120 18 -23 45 -65 60 -94 33 -66
98 -133 128 -133 13 0 34 7 46 16 36 25 29 76 -19 151 -23 35 -45 63 -49 63
-5 0 -13 12 -19 28 -26 65 -185 323 -211 342 -3 3 -22 28 -40 55 -49 72 -131
173 -145 179 -6 2 -37 38 -68 78 -30 41 -80 93 -110 115 -30 23 -83 69 -118
103 -35 34 -85 73 -111 86 -26 13 -49 28 -53 34 -9 15 -121 88 -185 120 -31
16 -85 36 -121 45 -35 9 -98 28 -139 42 -65 22 -96 26 -225 29 -82 2 -159 0
-171 -5z"/>
<path d="M7899 6344 c-24 -7 -43 -49 -35 -78 3 -13 40 -55 83 -93 154 -137
255 -244 323 -339 19 -27 59 -78 88 -113 30 -35 61 -80 69 -100 31 -77 43 -97
80 -133 46 -45 80 -59 110 -45 47 21 37 101 -25 194 -20 30 -44 66 -53 79 -8
13 -30 40 -48 59 -18 20 -39 50 -46 68 -22 51 -43 77 -175 221 -69 76 -165
168 -213 207 -83 66 -121 83 -158 73z"/>
<path d="M3680 6037 c-97 -39 -170 -99 -295 -242 -39 -45 -92 -153 -117 -242
-29 -103 -31 -272 -4 -388 25 -110 97 -256 144 -293 89 -71 262 -132 370 -132
57 0 205 44 260 78 66 39 204 210 247 303 26 58 65 261 65 338 0 65 -28 219
-47 255 -56 109 -203 247 -323 302 -73 33 -97 39 -165 41 -64 2 -91 -1 -135
-20z m273 -308 c19 -24 22 -80 6 -112 -30 -59 -107 -76 -147 -34 -46 49 -46
117 0 154 35 29 114 24 141 -8z"/>
<path d="M6700 5991 c-14 -5 -52 -22 -84 -40 -32 -17 -72 -31 -88 -31 -69 0
-111 -44 -185 -196 l-48 -99 0 -175 c0 -247 23 -326 138 -475 29 -38 71 -80
93 -93 59 -33 218 -82 270 -82 100 0 326 91 394 159 23 23 73 106 103 171 59
126 61 294 7 450 -42 124 -63 162 -113 217 -39 42 -139 123 -152 123 -3 0 -23
12 -44 26 -70 46 -214 68 -291 45z m280 -323 c29 -48 27 -112 -5 -143 -37 -38
-93 -35 -134 7 -26 27 -31 40 -31 79 0 62 30 89 101 89 45 0 51 -3 69 -32z"/>
<path d="M1768 5569 c-32 -4 -103 -25 -159 -46 -110 -41 -157 -77 -221 -171
-17 -26 -41 -58 -53 -72 -29 -32 -90 -171 -117 -268 -18 -68 -21 -105 -22
-302 -1 -242 8 -316 50 -430 37 -99 64 -151 98 -195 18 -22 40 -53 51 -70 26
-41 33 -49 94 -112 60 -60 202 -170 241 -185 14 -5 32 -15 40 -23 8 -7 51 -26
95 -40 69 -23 92 -27 170 -23 83 3 95 7 151 41 34 20 71 37 81 37 16 0 31 -23
68 -97 26 -54 60 -127 75 -163 15 -36 50 -100 79 -142 28 -42 60 -96 70 -120
10 -24 29 -52 41 -63 13 -11 39 -45 58 -75 84 -133 398 -399 585 -495 48 -24
103 -56 121 -70 18 -14 36 -25 41 -25 4 0 42 -16 84 -37 42 -20 117 -49 166
-64 50 -15 122 -39 160 -53 131 -50 436 -129 574 -149 47 -7 86 -17 88 -24 3
-7 -26 -43 -64 -80 -37 -38 -104 -111 -148 -163 -44 -51 -93 -105 -109 -119
-15 -14 -35 -40 -45 -57 -9 -18 -52 -71 -95 -118 -44 -47 -86 -96 -94 -109 -9
-12 -46 -55 -84 -95 -38 -40 -84 -94 -103 -120 -18 -26 -55 -68 -82 -93 -26
-25 -66 -71 -88 -103 -44 -63 -50 -70 -120 -136 -27 -25 -64 -70 -84 -100 -20
-30 -64 -84 -98 -120 -75 -80 -133 -151 -133 -166 0 -6 -31 -49 -69 -97 -116
-144 -155 -229 -126 -274 11 -17 25 -23 50 -23 49 0 98 47 140 134 19 39 47
85 62 101 68 74 136 157 172 211 21 33 66 87 99 121 34 34 88 97 120 140 33
43 77 94 98 114 22 19 66 70 99 112 33 42 65 79 70 81 6 2 31 30 55 62 24 33
78 94 120 137 41 43 83 92 92 110 10 18 60 77 113 131 52 55 95 106 95 113 0
15 74 93 112 118 27 17 28 17 97 -29 38 -25 73 -46 79 -46 6 0 39 -21 74 -47
35 -27 77 -57 93 -67 17 -11 39 -28 50 -38 33 -31 303 -228 313 -228 14 0 146
-92 160 -111 7 -10 33 -32 57 -49 82 -56 145 -33 145 53 0 49 -32 81 -126 128
-37 19 -68 39 -71 46 -6 15 -97 84 -142 107 -18 10 -57 37 -86 59 -93 74 -189
147 -225 172 -19 13 -59 40 -88 60 -28 20 -84 52 -122 71 -50 25 -70 40 -70
54 0 11 27 41 66 74 75 64 64 63 264 41 261 -28 624 -17 990 30 63 8 173 22
244 31 71 8 145 21 164 29 19 8 44 15 56 15 25 0 116 -89 140 -137 9 -18 20
-33 24 -33 4 0 16 -14 26 -31 l19 -32 -39 -34 c-49 -43 -185 -146 -200 -153
-7 -3 -34 -25 -61 -50 -26 -25 -66 -57 -88 -70 -22 -13 -56 -37 -75 -53 -152
-125 -247 -200 -274 -214 -28 -14 -71 -47 -131 -102 -11 -10 -38 -31 -60 -47
-22 -16 -42 -32 -45 -35 -3 -3 -19 -14 -37 -23 -40 -20 -54 -73 -29 -111 13
-19 25 -25 54 -25 40 0 55 9 141 78 29 24 64 47 76 52 12 5 48 29 79 55 31 25
66 54 78 63 11 9 41 34 65 55 24 20 48 37 53 37 5 0 15 6 22 13 7 6 39 29 70
51 31 21 71 52 88 70 31 29 65 55 177 130 28 20 59 46 70 59 10 13 38 37 63
53 25 16 46 32 48 36 2 4 19 17 38 29 32 20 36 20 59 5 14 -9 25 -20 25 -24 0
-4 15 -23 33 -42 17 -19 59 -69 92 -110 33 -41 69 -84 81 -95 11 -11 31 -37
44 -59 13 -21 39 -57 59 -80 20 -23 47 -57 61 -75 14 -18 54 -70 90 -115 36
-44 79 -101 95 -126 17 -24 62 -78 101 -120 39 -41 74 -84 78 -95 4 -11 27
-47 52 -80 45 -61 66 -89 119 -166 34 -49 324 -342 354 -358 51 -28 111 3 111
58 0 21 -12 40 -47 74 -129 123 -213 212 -213 226 0 6 -28 44 -63 84 -34 39
-78 97 -97 127 -19 30 -71 94 -116 143 -45 48 -89 102 -97 120 -9 17 -40 57
-69 88 -74 78 -178 223 -178 248 0 21 3 21 78 15 103 -8 309 33 397 79 94 50
99 95 20 192 -25 30 -45 59 -45 65 0 6 -46 57 -102 115 -106 109 -124 134
-115 158 3 8 45 26 94 41 118 37 288 123 324 164 54 61 27 128 -67 161 -21 7
-72 29 -112 48 -71 35 -204 63 -294 63 -45 0 -48 12 -12 37 23 16 68 54 134
115 10 9 31 25 46 35 68 44 197 207 251 318 103 209 206 510 234 680 6 42 20
86 29 97 16 20 17 20 43 3 36 -23 131 -43 248 -51 208 -15 366 56 565 253 132
130 201 244 266 438 35 107 27 287 -21 432 -33 103 -62 176 -71 183 -4 3 -30
39 -58 82 -44 65 -60 80 -106 102 -114 54 -203 57 -344 11 -86 -28 -133 -57
-156 -96 -19 -32 -21 -80 -4 -97 22 -22 90 -13 143 18 82 48 116 62 171 67 80
9 133 -28 213 -149 63 -94 119 -311 107 -411 -12 -110 -73 -274 -118 -321 -11
-12 -32 -39 -46 -61 -65 -101 -148 -173 -315 -270 -50 -29 -57 -30 -172 -30
-66 0 -162 4 -212 9 -106 10 -109 13 -93 96 11 60 -1 92 -46 112 -20 10 -29 8
-52 -9 -33 -24 -55 -84 -82 -222 -33 -164 -90 -392 -110 -437 -10 -23 -21 -57
-25 -75 -4 -19 -29 -79 -56 -135 -27 -55 -49 -106 -49 -111 0 -6 -16 -44 -36
-84 -31 -62 -57 -94 -163 -197 -69 -68 -139 -130 -156 -139 -16 -8 -58 -35
-91 -59 -34 -24 -86 -53 -115 -64 -30 -11 -62 -25 -71 -30 -10 -5 -53 -21 -95
-36 -43 -14 -87 -30 -98 -36 -19 -11 -202 -77 -340 -123 -38 -13 -128 -35
-200 -49 -71 -15 -179 -37 -240 -50 -60 -13 -153 -29 -205 -36 -52 -6 -129
-16 -170 -21 -148 -20 -590 -23 -800 -5 -265 22 -334 32 -625 91 -66 13 -149
29 -185 35 -74 14 -230 58 -245 70 -5 4 -26 11 -45 15 -19 4 -53 15 -75 25
-22 10 -71 31 -110 48 -165 70 -281 124 -297 139 -20 18 -64 44 -135 79 -29
14 -59 37 -68 51 -9 13 -48 44 -86 69 -38 25 -89 66 -113 92 -24 26 -75 81
-113 122 -39 41 -97 119 -129 173 -32 54 -73 121 -91 150 -18 29 -39 73 -48
99 -9 26 -21 50 -26 54 -13 8 -114 212 -123 247 -4 19 0 43 14 74 26 58 25 69
-5 98 -42 43 -44 42 -194 -93 -87 -80 -128 -100 -199 -101 -62 -1 -171 29
-224 62 -67 41 -202 160 -272 240 -56 63 -76 97 -107 173 -57 142 -72 254 -66
481 6 240 19 300 105 472 22 44 152 157 211 183 127 56 208 56 308 2 97 -54
163 -40 163 32 0 30 -24 74 -40 74 -5 0 -35 12 -66 26 -64 29 -154 55 -187 53
-12 -1 -48 -5 -79 -10z m5747 -3184 c125 -19 137 -23 133 -43 -5 -28 -266
-120 -366 -129 -59 -5 -72 -2 -183 42 -109 43 -153 74 -135 92 7 7 310 43 426
51 14 1 70 -5 125 -13z m-750 -118 c69 -39 58 -79 -37 -136 -36 -21 -37 -21
-55 -3 -10 11 -28 24 -40 31 -27 14 -78 79 -70 88 12 11 112 42 137 43 14 0
43 -10 65 -23z m496 -274 c96 -61 185 -139 200 -175 7 -18 35 -53 61 -77 26
-25 48 -53 48 -62 0 -46 -280 -59 -413 -20 -115 33 -143 47 -168 83 -13 18
-28 38 -34 43 -30 26 -135 166 -135 179 0 19 35 30 56 18 10 -5 52 -44 94 -86
89 -89 126 -103 174 -65 25 20 28 27 23 63 -4 31 -15 49 -46 78 -23 20 -41 44
-41 54 0 15 8 16 60 11 48 -4 74 -14 121 -44z"/>
<path d="M1678 4965 c-48 -27 -60 -68 -30 -104 12 -16 35 -24 86 -32 78 -11
187 -47 249 -83 101 -58 183 -33 163 50 -9 33 -90 84 -211 132 -117 47 -214
60 -257 37z"/>
<path d="M8541 4800 c-57 -10 -147 -33 -200 -50 -140 -47 -183 -99 -125 -157
23 -23 31 -25 74 -19 46 6 51 4 87 -29 71 -65 218 -176 242 -182 31 -8 61 27
61 71 0 43 -29 86 -81 120 -52 36 -89 67 -89 77 0 18 139 49 221 49 44 0 89
32 89 64 0 12 -11 33 -25 46 -34 32 -115 35 -254 10z"/>
<path d="M2073 4671 c-39 -10 -131 -57 -158 -81 -11 -10 -40 -30 -65 -45 -152
-92 -191 -225 -66 -225 29 0 46 9 84 43 25 23 54 52 64 63 31 38 112 83 177
98 99 23 127 65 79 120 -26 29 -67 39 -115 27z"/>
<path d="M4855 4595 c-14 -13 -25 -31 -25 -39 0 -23 85 -113 160 -171 69 -53
163 -91 255 -101 73 -9 261 29 350 70 113 52 160 133 100 172 -21 13 -32 14
-77 5 -29 -7 -71 -22 -93 -35 -64 -37 -172 -68 -239 -69 -69 -1 -133 25 -222
91 -158 116 -168 119 -209 77z"/>
<path d="M5223 1901 c-27 -25 -29 -62 -7 -96 17 -26 83 -49 174 -60 121 -14
230 -37 230 -49 0 -7 -20 -22 -45 -34 -67 -32 -82 -64 -76 -157 2 -37 47 -73
106 -85 65 -14 99 -4 128 36 16 21 17 29 6 61 -11 35 -10 37 22 65 19 16 58
43 86 59 95 55 119 122 64 177 -26 26 -41 30 -153 46 -67 10 -168 24 -223 32
-55 8 -143 17 -195 20 -88 6 -97 5 -117 -15z"/>
</g>
</svg>
