<?xml version="1.0" standalone="no"?><!DOCTYPE svg PUBLIC "-//W3C//DTD SVG 1.1//EN" "http://www.w3.org/Graphics/SVG/1.1/DTD/svg11.dtd"><svg t="1717643869612" class="icon" viewBox="0 0 1024 1024" version="1.1" xmlns="http://www.w3.org/2000/svg" p-id="32894" xmlns:xlink="http://www.w3.org/1999/xlink" width="200" height="200"><path d="M870.4 235.52H747.52v20.48c0 17.408-13.312 30.72-30.72 30.72s-30.72-13.312-30.72-30.72v-20.48H378.88v20.48c0 17.408-13.312 30.72-30.72 30.72s-30.72-13.312-30.72-30.72v-20.48H194.56c-33.792 0-61.44 27.648-61.44 61.44v450.56c0 33.792 27.648 61.44 61.44 61.44h675.84c33.792 0 61.44-27.648 61.44-61.44V296.96c0-33.792-27.648-61.44-61.44-61.44zM624.64 550.912c6.144-31.744 32.768-57.344 66.56-66.56-15.36-10.24-25.6-27.648-25.6-47.104 0-30.72 24.576-55.296 55.296-55.296s55.296 24.576 55.296 55.296c0 19.456-10.24 36.864-25.6 47.104 33.792 9.216 60.416 34.816 66.56 66.56 1.024 5.12 0 11.264-4.096 15.36-3.072 4.096-8.192 6.144-14.336 6.144H643.072c-5.12 0-10.24-2.048-14.336-6.144-3.072-4.096-5.12-9.216-4.096-15.36zM266.24 399.36h225.28c11.264 0 20.48 9.216 20.48 20.48s-9.216 20.48-20.48 20.48H266.24c-11.264 0-20.48-9.216-20.48-20.48s9.216-20.48 20.48-20.48z m0 128h225.28c11.264 0 20.48 9.216 20.48 20.48s-9.216 20.48-20.48 20.48H266.24c-11.264 0-20.48-9.216-20.48-20.48s9.216-20.48 20.48-20.48zM798.72 696.32H266.24c-11.264 0-20.48-9.216-20.48-20.48s9.216-20.48 20.48-20.48h532.48c11.264 0 20.48 9.216 20.48 20.48s-9.216 20.48-20.48 20.48z" fill="#2891D0" p-id="32895"></path><path d="M348.16 256c-11.264 0-20.48-9.216-20.48-20.48v-30.72c0-11.264 9.216-20.48 20.48-20.48s20.48 9.216 20.48 20.48v30.72c0 11.264-9.216 20.48-20.48 20.48zM716.8 256c-11.264 0-20.48-9.216-20.48-20.48v-30.72c0-11.264 9.216-20.48 20.48-20.48s20.48 9.216 20.48 20.48v30.72c0 11.264-9.216 20.48-20.48 20.48z" fill="#2891D0" p-id="32896"></path></svg>