<?xml version="1.0" standalone="no"?><!DOCTYPE svg PUBLIC "-//W3C//DTD SVG 1.1//EN" "http://www.w3.org/Graphics/SVG/1.1/DTD/svg11.dtd"><svg t="1717641868848" class="icon" viewBox="0 0 1223 1024" version="1.1" xmlns="http://www.w3.org/2000/svg" p-id="6056" xmlns:xlink="http://www.w3.org/1999/xlink" width="238.8671875" height="200"><path d="M987.306667 0H232.96C104.874667 0 0 106.581333 0 236.828444V639.431111c0 130.247111 104.846222 236.828444 232.96 236.828445h754.346667c128.113778 0 232.96-106.581333 232.96-236.828445V236.828444C1220.266667 106.552889 1115.420444 0 987.306667 0z" fill="#00C57F" p-id="6057"></path><path d="M312.888889 938.666667m42.666667 0l540.444444 0q42.666667 0 42.666667 42.666666l0 0q0 42.666667-42.666667 42.666667l-540.444444 0q-42.666667 0-42.666667-42.666667l0 0q0-42.666667 42.666667-42.666666Z" fill="#4288FF" p-id="6058"></path><path d="M572.017778 594.887111h-38.144c-48.497778 0.028444-91.733333-31.857778-107.889778-79.559111h-159.004444c-21.048889 0-38.115556-17.834667-38.115556-39.793778 0-21.987556 17.066667-39.793778 38.115556-39.793778h159.004444c16.156444-47.701333 59.392-79.587556 107.889778-79.559111h38.115555v238.705778zM953.287111 515.328h-159.004444c-16.156444 47.701333-59.392 79.587556-107.889778 79.559111h-38.115556v-238.705778h38.115556c48.497778-0.028444 91.733333 31.857778 107.889778 79.559111h159.004444c21.048889 0 38.115556 17.806222 38.115556 39.822223 0 21.930667-17.066667 39.765333-38.115556 39.765333z" fill="#FFFFFF" p-id="6059"></path></svg>