<?xml version="1.0" standalone="no"?><!DOCTYPE svg PUBLIC "-//W3C//DTD SVG 1.1//EN" "http://www.w3.org/Graphics/SVG/1.1/DTD/svg11.dtd"><svg t="1717616743261" class="icon" viewBox="0 0 1024 1024" version="1.1" xmlns="http://www.w3.org/2000/svg" p-id="58951" xmlns:xlink="http://www.w3.org/1999/xlink" width="200" height="200"><path d="M535.698286 403.382857L415.670857 524.214857a63.049143 63.049143 0 0 0-21.211428 2.413714L307.931429 440.100571a174.957714 174.957714 0 0 1-67.803429 17.993143A249.124571 249.124571 0 0 1 4.096 222.939429l21.211429-21.211429C124.928 301.348571 103.716571 290.742857 166.546286 290.742857A166.326857 166.326857 0 0 0 292.278857 165.010286c0-60.416 8.192-43.885714-89.014857-141.238857l21.211429-20.406858A247.149714 247.149714 0 0 1 459.776 238.445714a221.110857 221.110857 0 0 1-17.993143 71.021715z m347.867428 427.081143a52.297143 52.297143 0 1 1-52.297143 52.297143 52.077714 52.077714 0 0 1 52.297143-52.297143z m-280.064-95.085714l160.036572 160.036571 86.528 115.126857 43.885714 13.092572 125.732571-125.732572-13.092571-47.396571-112.713143-83.309714-169.837714-170.642286-120.832 120.832a17.700571 17.700571 0 0 1 0.292571 18.358857z" fill="#9AC6FD" p-id="58952"></path><path d="M920.283429 627.126857s17.993143-154.331429-78.409143-195.145143h-2.413715a52.882286 52.882286 0 0 0-41.618285 8.996572L533.284571 697.417143a44.690286 44.690286 0 0 1-10.605714 53.101714l-8.192 5.705143-245.76 244.955429-8.192 7.314285a49.590857 49.590857 0 0 1-34.304 13.092572c-62.902857 0-151.917714-104.521143-104.521143-151.917715l8.192-8.192 245.76-245.76 8.192-8.192a43.885714 43.885714 0 0 1 34.304-13.092571c8.192 0 15.506286 2.413714 23.698286 2.413714L677.010286 361.764571a80.457143 80.457143 0 0 0 17.993143-86.528 120.027429 120.027429 0 0 0-73.142858-47.396571c-23.698286 0-47.396571-26.112-67.803428-47.396571l-8.192-8.192c-28.598857-28.598857-36.571429-31.012571-2.413714-62.902858L633.124571 21.211429c15.506286-15.506286 23.698286-21.211429 31.012572-21.211429 10.605714 0 17.993143 10.605714 31.012571 23.698286l8.192 8.192c17.993143 17.993143 41.618286 39.204571 43.885715 60.416a187.245714 187.245714 0 0 0 28.598857 54.710857c8.192 10.605714 36.571429 0 43.885714 10.605714L965.193143 301.348571c110.226286 110.226286 17.993143 377.270857 17.993143 377.270858l-62.902857-51.2z" fill="#5594E2" p-id="58953"></path></svg>